<mxfile host="65bd71144e">
    <diagram id="AasLiBzB_ZhptHD53hoM" name="Page-1">
        <mxGraphModel dx="1455" dy="782" grid="1" gridSize="10" guides="1" tooltips="1" connect="1" arrows="1" fold="1" page="1" pageScale="1" pageWidth="827" pageHeight="1169" math="0" shadow="0">
            <root>
                <mxCell id="1xAknrsnmkyv6gJPhe-h-0"/>
                <mxCell id="1xAknrsnmkyv6gJPhe-h-1" parent="1xAknrsnmkyv6gJPhe-h-0"/>
                <mxCell id="0os1_4NHSH444q40NuUL-3" value="" style="edgeStyle=none;html=1;" parent="1xAknrsnmkyv6gJPhe-h-1" source="1xAknrsnmkyv6gJPhe-h-3" target="1xAknrsnmkyv6gJPhe-h-6" edge="1">
                    <mxGeometry relative="1" as="geometry"/>
                </mxCell>
                <mxCell id="1xAknrsnmkyv6gJPhe-h-3" value="Début" style="ellipse;whiteSpace=wrap;html=1;" parent="1xAknrsnmkyv6gJPhe-h-1" vertex="1">
                    <mxGeometry x="362" width="118" height="60" as="geometry"/>
                </mxCell>
                <mxCell id="1xAknrsnmkyv6gJPhe-h-4" value="Saisie de la recherche principale" style="whiteSpace=wrap;html=1;" parent="1xAknrsnmkyv6gJPhe-h-1" vertex="1">
                    <mxGeometry x="362" y="80" width="118" height="60" as="geometry"/>
                </mxCell>
                <mxCell id="0os1_4NHSH444q40NuUL-42" style="edgeStyle=none;html=1;exitX=0.5;exitY=1;exitDx=0;exitDy=0;entryX=0.5;entryY=0;entryDx=0;entryDy=0;" parent="1xAknrsnmkyv6gJPhe-h-1" source="1xAknrsnmkyv6gJPhe-h-6" edge="1">
                    <mxGeometry relative="1" as="geometry">
                        <mxPoint x="420" y="250" as="targetPoint"/>
                    </mxGeometry>
                </mxCell>
                <mxCell id="29" style="edgeStyle=none;html=1;exitX=1;exitY=0.5;exitDx=0;exitDy=0;" parent="1xAknrsnmkyv6gJPhe-h-1" source="1xAknrsnmkyv6gJPhe-h-6" edge="1">
                    <mxGeometry relative="1" as="geometry">
                        <mxPoint x="480" y="130" as="targetPoint"/>
                        <Array as="points">
                            <mxPoint x="560" y="195"/>
                            <mxPoint x="560" y="130"/>
                        </Array>
                    </mxGeometry>
                </mxCell>
                <mxCell id="1xAknrsnmkyv6gJPhe-h-6" value="Caractères &amp;gt;3" style="rhombus;whiteSpace=wrap;html=1;" parent="1xAknrsnmkyv6gJPhe-h-1" vertex="1">
                    <mxGeometry x="360" y="160" width="120" height="70" as="geometry"/>
                </mxCell>
                <mxCell id="0os1_4NHSH444q40NuUL-27" value="" style="edgeStyle=none;html=1;" parent="1xAknrsnmkyv6gJPhe-h-1" target="0os1_4NHSH444q40NuUL-26" edge="1">
                    <mxGeometry relative="1" as="geometry">
                        <mxPoint x="420.39730639730624" y="329.7306397306397" as="sourcePoint"/>
                    </mxGeometry>
                </mxCell>
                <mxCell id="42" style="edgeStyle=none;html=1;entryX=0.46;entryY=-0.05;entryDx=0;entryDy=0;entryPerimeter=0;exitX=0.5;exitY=0;exitDx=0;exitDy=0;" edge="1" parent="1xAknrsnmkyv6gJPhe-h-1" source="0os1_4NHSH444q40NuUL-26" target="31">
                    <mxGeometry relative="1" as="geometry">
                        <mxPoint x="410" y="240" as="sourcePoint"/>
                        <Array as="points">
                            <mxPoint x="242" y="250"/>
                        </Array>
                    </mxGeometry>
                </mxCell>
                <mxCell id="0os1_4NHSH444q40NuUL-17" value="NON" style="text;html=1;align=center;verticalAlign=middle;resizable=0;points=[];autosize=1;strokeColor=none;fillColor=none;" parent="1xAknrsnmkyv6gJPhe-h-1" vertex="1">
                    <mxGeometry x="570" y="160" width="40" height="20" as="geometry"/>
                </mxCell>
                <mxCell id="0os1_4NHSH444q40NuUL-56" style="edgeStyle=none;html=1;exitX=0.5;exitY=0;exitDx=0;exitDy=0;entryX=0.5;entryY=0;entryDx=0;entryDy=0;" parent="1xAknrsnmkyv6gJPhe-h-1" source="0os1_4NHSH444q40NuUL-26" target="0os1_4NHSH444q40NuUL-38" edge="1">
                    <mxGeometry relative="1" as="geometry">
                        <mxPoint x="600" y="850" as="targetPoint"/>
                        <Array as="points">
                            <mxPoint x="500" y="250"/>
                            <mxPoint x="602" y="250"/>
                        </Array>
                        <mxPoint x="420" y="240" as="sourcePoint"/>
                    </mxGeometry>
                </mxCell>
                <mxCell id="1" style="edgeStyle=none;html=1;exitX=0.5;exitY=1;exitDx=0;exitDy=0;entryX=0.5;entryY=0;entryDx=0;entryDy=0;" parent="1xAknrsnmkyv6gJPhe-h-1" source="0os1_4NHSH444q40NuUL-26" target="0os1_4NHSH444q40NuUL-28" edge="1">
                    <mxGeometry relative="1" as="geometry"/>
                </mxCell>
                <mxCell id="6" style="edgeStyle=none;html=1;exitX=1;exitY=0.5;exitDx=0;exitDy=0;" parent="1xAknrsnmkyv6gJPhe-h-1" source="0os1_4NHSH444q40NuUL-26" edge="1">
                    <mxGeometry relative="1" as="geometry">
                        <mxPoint x="600" y="290" as="targetPoint"/>
                    </mxGeometry>
                </mxCell>
                <mxCell id="50" style="edgeStyle=none;html=1;exitX=0;exitY=0.5;exitDx=0;exitDy=0;" edge="1" parent="1xAknrsnmkyv6gJPhe-h-1" source="0os1_4NHSH444q40NuUL-26">
                    <mxGeometry relative="1" as="geometry">
                        <mxPoint x="240" y="290" as="targetPoint"/>
                    </mxGeometry>
                </mxCell>
                <mxCell id="0os1_4NHSH444q40NuUL-26" value="Recherche :&lt;br&gt;nom" style="rhombus;whiteSpace=wrap;html=1;" parent="1xAknrsnmkyv6gJPhe-h-1" vertex="1">
                    <mxGeometry x="361" y="250" width="120" height="80" as="geometry"/>
                </mxCell>
                <mxCell id="0os1_4NHSH444q40NuUL-57" style="edgeStyle=none;html=1;exitX=1;exitY=0.5;exitDx=0;exitDy=0;" parent="1xAknrsnmkyv6gJPhe-h-1" source="0os1_4NHSH444q40NuUL-28" edge="1">
                    <mxGeometry relative="1" as="geometry">
                        <mxPoint x="600" y="420" as="targetPoint"/>
                    </mxGeometry>
                </mxCell>
                <mxCell id="2" style="edgeStyle=none;html=1;exitX=0.5;exitY=1;exitDx=0;exitDy=0;" parent="1xAknrsnmkyv6gJPhe-h-1" source="0os1_4NHSH444q40NuUL-28" target="0os1_4NHSH444q40NuUL-32" edge="1">
                    <mxGeometry relative="1" as="geometry"/>
                </mxCell>
                <mxCell id="40" style="edgeStyle=none;html=1;exitX=0;exitY=0.5;exitDx=0;exitDy=0;" edge="1" parent="1xAknrsnmkyv6gJPhe-h-1" source="0os1_4NHSH444q40NuUL-28">
                    <mxGeometry relative="1" as="geometry">
                        <mxPoint x="240" y="420" as="targetPoint"/>
                    </mxGeometry>
                </mxCell>
                <mxCell id="0os1_4NHSH444q40NuUL-28" value="Recherche :&amp;nbsp;&lt;br&gt;description" style="rhombus;whiteSpace=wrap;html=1;" parent="1xAknrsnmkyv6gJPhe-h-1" vertex="1">
                    <mxGeometry x="361" y="380" width="120" height="80" as="geometry"/>
                </mxCell>
                <mxCell id="0os1_4NHSH444q40NuUL-58" style="edgeStyle=none;html=1;exitX=1;exitY=0.5;exitDx=0;exitDy=0;" parent="1xAknrsnmkyv6gJPhe-h-1" source="0os1_4NHSH444q40NuUL-32" edge="1">
                    <mxGeometry relative="1" as="geometry">
                        <mxPoint x="600" y="540" as="targetPoint"/>
                    </mxGeometry>
                </mxCell>
                <mxCell id="3" style="edgeStyle=none;html=1;exitX=0.5;exitY=1;exitDx=0;exitDy=0;entryX=0.5;entryY=0;entryDx=0;entryDy=0;" parent="1xAknrsnmkyv6gJPhe-h-1" source="0os1_4NHSH444q40NuUL-32" target="0os1_4NHSH444q40NuUL-34" edge="1">
                    <mxGeometry relative="1" as="geometry"/>
                </mxCell>
                <mxCell id="39" style="edgeStyle=none;html=1;exitX=0;exitY=0.5;exitDx=0;exitDy=0;" edge="1" parent="1xAknrsnmkyv6gJPhe-h-1" source="0os1_4NHSH444q40NuUL-32">
                    <mxGeometry relative="1" as="geometry">
                        <mxPoint x="240" y="540" as="targetPoint"/>
                    </mxGeometry>
                </mxCell>
                <mxCell id="0os1_4NHSH444q40NuUL-32" value="Recherche :&lt;br&gt;ingredients" style="rhombus;whiteSpace=wrap;html=1;" parent="1xAknrsnmkyv6gJPhe-h-1" vertex="1">
                    <mxGeometry x="361" y="500" width="120" height="80" as="geometry"/>
                </mxCell>
                <mxCell id="4" style="edgeStyle=none;html=1;exitX=0.5;exitY=1;exitDx=0;exitDy=0;" parent="1xAknrsnmkyv6gJPhe-h-1" source="0os1_4NHSH444q40NuUL-34" target="0os1_4NHSH444q40NuUL-36" edge="1">
                    <mxGeometry relative="1" as="geometry"/>
                </mxCell>
                <mxCell id="38" style="edgeStyle=none;html=1;exitX=0;exitY=0.5;exitDx=0;exitDy=0;" edge="1" parent="1xAknrsnmkyv6gJPhe-h-1" source="0os1_4NHSH444q40NuUL-34">
                    <mxGeometry relative="1" as="geometry">
                        <mxPoint x="240" y="660" as="targetPoint"/>
                    </mxGeometry>
                </mxCell>
                <mxCell id="58" style="edgeStyle=none;html=1;exitX=1;exitY=0.5;exitDx=0;exitDy=0;" edge="1" parent="1xAknrsnmkyv6gJPhe-h-1" source="0os1_4NHSH444q40NuUL-34">
                    <mxGeometry relative="1" as="geometry">
                        <mxPoint x="600" y="660" as="targetPoint"/>
                    </mxGeometry>
                </mxCell>
                <mxCell id="0os1_4NHSH444q40NuUL-34" value="Recherche :&lt;br&gt;appareils" style="rhombus;whiteSpace=wrap;html=1;" parent="1xAknrsnmkyv6gJPhe-h-1" vertex="1">
                    <mxGeometry x="361" y="620" width="120" height="80" as="geometry"/>
                </mxCell>
                <mxCell id="47" style="edgeStyle=none;html=1;exitX=0;exitY=0.5;exitDx=0;exitDy=0;" edge="1" parent="1xAknrsnmkyv6gJPhe-h-1" source="0os1_4NHSH444q40NuUL-36">
                    <mxGeometry relative="1" as="geometry">
                        <mxPoint x="240" y="780" as="targetPoint"/>
                    </mxGeometry>
                </mxCell>
                <mxCell id="59" style="edgeStyle=none;html=1;exitX=1;exitY=0.5;exitDx=0;exitDy=0;" edge="1" parent="1xAknrsnmkyv6gJPhe-h-1" source="0os1_4NHSH444q40NuUL-36">
                    <mxGeometry relative="1" as="geometry">
                        <mxPoint x="600" y="780" as="targetPoint"/>
                    </mxGeometry>
                </mxCell>
                <mxCell id="0os1_4NHSH444q40NuUL-36" value="Recherche :&lt;br&gt;ustensiles" style="rhombus;whiteSpace=wrap;html=1;" parent="1xAknrsnmkyv6gJPhe-h-1" vertex="1">
                    <mxGeometry x="361" y="740" width="120" height="80" as="geometry"/>
                </mxCell>
                <mxCell id="63" style="edgeStyle=none;html=1;exitX=0.5;exitY=1;exitDx=0;exitDy=0;entryX=0.465;entryY=0;entryDx=0;entryDy=0;entryPerimeter=0;" edge="1" parent="1xAknrsnmkyv6gJPhe-h-1" source="0os1_4NHSH444q40NuUL-38" target="23">
                    <mxGeometry relative="1" as="geometry"/>
                </mxCell>
                <mxCell id="0os1_4NHSH444q40NuUL-38" value="La recette est ajoutée à la selection" style="whiteSpace=wrap;html=1;" parent="1xAknrsnmkyv6gJPhe-h-1" vertex="1">
                    <mxGeometry x="500" y="830" width="200" height="50" as="geometry"/>
                </mxCell>
                <mxCell id="62" style="edgeStyle=none;html=1;exitX=1;exitY=0.5;exitDx=0;exitDy=0;entryX=1;entryY=0.5;entryDx=0;entryDy=0;" edge="1" parent="1xAknrsnmkyv6gJPhe-h-1" source="0os1_4NHSH444q40NuUL-41" target="1xAknrsnmkyv6gJPhe-h-4">
                    <mxGeometry relative="1" as="geometry">
                        <mxPoint x="760" y="100" as="targetPoint"/>
                        <Array as="points">
                            <mxPoint x="760" y="1085"/>
                            <mxPoint x="760" y="110"/>
                        </Array>
                    </mxGeometry>
                </mxCell>
                <mxCell id="0os1_4NHSH444q40NuUL-41" value="Fin : recette trouvée&lt;br&gt;ou abandon de la recherche" style="ellipse;whiteSpace=wrap;html=1;" parent="1xAknrsnmkyv6gJPhe-h-1" vertex="1">
                    <mxGeometry x="535.5" y="1030" width="139" height="110" as="geometry"/>
                </mxCell>
                <mxCell id="0os1_4NHSH444q40NuUL-61" value="OUI" style="text;html=1;align=center;verticalAlign=middle;resizable=0;points=[];autosize=1;strokeColor=none;fillColor=none;" parent="1xAknrsnmkyv6gJPhe-h-1" vertex="1">
                    <mxGeometry x="520" y="270" width="40" height="20" as="geometry"/>
                </mxCell>
                <mxCell id="0os1_4NHSH444q40NuUL-62" value="OUI" style="text;html=1;align=center;verticalAlign=middle;resizable=0;points=[];autosize=1;strokeColor=none;fillColor=none;" parent="1xAknrsnmkyv6gJPhe-h-1" vertex="1">
                    <mxGeometry x="520" y="230" width="40" height="20" as="geometry"/>
                </mxCell>
                <mxCell id="0os1_4NHSH444q40NuUL-64" value="OUI" style="text;html=1;align=center;verticalAlign=middle;resizable=0;points=[];autosize=1;strokeColor=none;fillColor=none;" parent="1xAknrsnmkyv6gJPhe-h-1" vertex="1">
                    <mxGeometry x="520" y="520" width="40" height="20" as="geometry"/>
                </mxCell>
                <mxCell id="0os1_4NHSH444q40NuUL-65" value="OUI" style="text;html=1;align=center;verticalAlign=middle;resizable=0;points=[];autosize=1;strokeColor=none;fillColor=none;" parent="1xAknrsnmkyv6gJPhe-h-1" vertex="1">
                    <mxGeometry x="520" y="640" width="40" height="20" as="geometry"/>
                </mxCell>
                <mxCell id="0os1_4NHSH444q40NuUL-66" value="OUI" style="text;html=1;align=center;verticalAlign=middle;resizable=0;points=[];autosize=1;strokeColor=none;fillColor=none;" parent="1xAknrsnmkyv6gJPhe-h-1" vertex="1">
                    <mxGeometry x="520" y="760" width="40" height="20" as="geometry"/>
                </mxCell>
                <mxCell id="7" value="OUI" style="text;html=1;align=center;verticalAlign=middle;resizable=0;points=[];autosize=1;strokeColor=none;fillColor=none;" parent="1xAknrsnmkyv6gJPhe-h-1" vertex="1">
                    <mxGeometry x="520" y="400" width="40" height="20" as="geometry"/>
                </mxCell>
                <mxCell id="10" value="" style="edgeStyle=none;html=1;entryX=0.5;entryY=0;entryDx=0;entryDy=0;endArrow=none;" parent="1xAknrsnmkyv6gJPhe-h-1" edge="1">
                    <mxGeometry relative="1" as="geometry">
                        <mxPoint x="420" y="1080" as="sourcePoint"/>
                        <mxPoint x="421" y="1080" as="targetPoint"/>
                    </mxGeometry>
                </mxCell>
                <mxCell id="12" value="NON" style="text;html=1;align=center;verticalAlign=middle;resizable=0;points=[];autosize=1;strokeColor=none;fillColor=none;" parent="1xAknrsnmkyv6gJPhe-h-1" vertex="1">
                    <mxGeometry x="280" y="760" width="40" height="20" as="geometry"/>
                </mxCell>
                <mxCell id="61" style="edgeStyle=none;html=1;exitX=0.5;exitY=1;exitDx=0;exitDy=0;entryX=0.5;entryY=0;entryDx=0;entryDy=0;" edge="1" parent="1xAknrsnmkyv6gJPhe-h-1" source="23" target="0os1_4NHSH444q40NuUL-41">
                    <mxGeometry relative="1" as="geometry"/>
                </mxCell>
                <mxCell id="23" value="Construction du DOM" style="shape=parallelogram;perimeter=parallelogramPerimeter;whiteSpace=wrap;html=1;fixedSize=1;" parent="1xAknrsnmkyv6gJPhe-h-1" vertex="1">
                    <mxGeometry x="520" y="940" width="170" height="60" as="geometry"/>
                </mxCell>
                <mxCell id="28" value="ANNEXE : 1" style="text;html=1;align=center;verticalAlign=middle;resizable=0;points=[];autosize=1;strokeColor=none;fillColor=none;" parent="1xAknrsnmkyv6gJPhe-h-1" vertex="1">
                    <mxGeometry x="100" y="30" width="80" height="20" as="geometry"/>
                </mxCell>
                <mxCell id="48" style="edgeStyle=none;html=1;exitX=0.25;exitY=0;exitDx=0;exitDy=0;" edge="1" parent="1xAknrsnmkyv6gJPhe-h-1" source="31">
                    <mxGeometry relative="1" as="geometry">
                        <mxPoint x="360" y="120" as="targetPoint"/>
                        <Array as="points">
                            <mxPoint x="200" y="120"/>
                        </Array>
                    </mxGeometry>
                </mxCell>
                <mxCell id="31" value="&lt;span&gt;&amp;nbsp;Message : &quot; Aucune recette&amp;nbsp;&lt;/span&gt;&lt;br&gt;&lt;span&gt;ne correspond à votre critère...&lt;/span&gt;" style="shape=parallelogram;perimeter=parallelogramPerimeter;whiteSpace=wrap;html=1;fixedSize=1;" vertex="1" parent="1xAknrsnmkyv6gJPhe-h-1">
                    <mxGeometry x="150" y="870" width="200" height="60" as="geometry"/>
                </mxCell>
                <mxCell id="43" value="NON" style="text;html=1;align=center;verticalAlign=middle;resizable=0;points=[];autosize=1;strokeColor=none;fillColor=none;" vertex="1" parent="1xAknrsnmkyv6gJPhe-h-1">
                    <mxGeometry x="280" y="640" width="40" height="20" as="geometry"/>
                </mxCell>
                <mxCell id="44" value="NON" style="text;html=1;align=center;verticalAlign=middle;resizable=0;points=[];autosize=1;strokeColor=none;fillColor=none;" vertex="1" parent="1xAknrsnmkyv6gJPhe-h-1">
                    <mxGeometry x="280" y="520" width="40" height="20" as="geometry"/>
                </mxCell>
                <mxCell id="45" value="NON" style="text;html=1;align=center;verticalAlign=middle;resizable=0;points=[];autosize=1;strokeColor=none;fillColor=none;" vertex="1" parent="1xAknrsnmkyv6gJPhe-h-1">
                    <mxGeometry x="280" y="400" width="40" height="20" as="geometry"/>
                </mxCell>
                <mxCell id="46" value="NON" style="text;html=1;align=center;verticalAlign=middle;resizable=0;points=[];autosize=1;strokeColor=none;fillColor=none;" vertex="1" parent="1xAknrsnmkyv6gJPhe-h-1">
                    <mxGeometry x="280" y="230" width="40" height="20" as="geometry"/>
                </mxCell>
                <mxCell id="51" value="NON" style="text;html=1;align=center;verticalAlign=middle;resizable=0;points=[];autosize=1;strokeColor=none;fillColor=none;" vertex="1" parent="1xAknrsnmkyv6gJPhe-h-1">
                    <mxGeometry x="280" y="270" width="40" height="20" as="geometry"/>
                </mxCell>
            </root>
        </mxGraphModel>
    </diagram>
</mxfile>